<svg xmlns="http://www.w3.org/2000/svg" xmlns:xlink="http://www.w3.org/1999/xlink" viewBox="0 0 22 14.493" overflow="visible"><path d="M 6.5 6 C 7.605 6 8.5 5.105 8.5 4 C 8.5 2.895 7.605 2 6.5 2 L 2 2 L 2 6 Z M 7.5 8 L 2 8 L 2 12 L 7.5 12 C 8.605 12 9.5 11.105 9.5 10 C 9.5 8.895 8.605 8 7.5 8 Z M 9.563 6.572 C 11.103 7.498 11.837 9.338 11.356 11.07 C 10.875 12.802 9.298 14.001 7.5 14 L 0 14 L 0 0 L 6.5 0 C 8.055 0 9.468 0.901 10.125 2.31 C 10.782 3.719 10.563 5.381 9.563 6.572 Z M 14.5 1 L 20 1 L 20 2.5 L 14.5 2.5 Z M 22 9.5 L 14.5 9.5 L 14.5 9.75 C 14.5 11.022 15.371 12.128 16.607 12.425 C 17.844 12.722 19.122 12.133 19.7 11 L 21.834 11 C 21.204 13.292 18.977 14.766 16.621 14.45 C 14.265 14.135 12.505 12.127 12.5 9.75 L 12.5 8.25 C 12.5 5.627 14.627 3.5 17.25 3.5 C 19.873 3.5 22 5.627 22 8.25 Z M 19.896 7.5 C 19.56 6.317 18.48 5.5 17.249 5.5 C 16.019 5.5 14.939 6.317 14.603 7.5 Z" fill="rgb(137, 137, 137)"></path></svg>