<svg width="800" height="800" viewBox="0 0 800 800" fill="none" xmlns="http://www.w3.org/2000/svg">
<path d="M788.594 318.125C783.281 292.5 775.469 267.5 765.156 243.125C755.156 219.375 742.656 196.875 728.281 175.625C713.906 154.375 697.656 135 679.844 116.875C661.719 98.75 641.719 82.1875 621.094 68.4375C599.844 54.0625 576.719 41.5625 553.594 31.5625C529.531 21.25 504.531 13.4375 478.594 8.12502C452.344 2.81252 425.469 0 398.281 0C371.094 0 344.219 2.81252 317.969 8.12502C292.344 13.4375 267.344 21.25 243.281 31.5625C219.531 41.5625 197.031 54.0625 175.781 68.4375C154.531 82.8125 134.844 99.0625 117.031 116.875C99.2187 134.687 82.6562 155 68.5937 175.625C54.2187 196.875 41.7188 219.375 31.7188 243.125C21.4063 267.187 13.5938 292.187 8.28127 318.125C2.96877 344.375 0.15625 371.25 0.15625 398.438C0.15625 425.625 2.96877 452.5 8.28127 478.75C13.5938 504.375 21.4063 529.375 31.7188 553.438C41.7188 577.188 54.2187 599.687 68.5937 621.25C82.9687 642.5 99.2187 661.875 117.031 680C135.156 698.125 155.156 714.375 175.781 728.438C197.031 742.813 220.156 755.313 243.281 765.313C267.344 775.625 292.344 783.438 317.969 788.75C344.219 794.063 371.094 796.875 398.281 796.875C425.469 796.875 452.031 794.063 478.594 788.75C504.219 783.438 529.219 775.625 553.594 765.313C577.344 755.313 599.844 742.813 621.094 728.438C642.344 714.063 662.031 697.813 679.844 680C697.969 661.875 714.219 641.875 728.281 621.25C742.656 600 755.156 577.188 765.156 553.438C775.469 529.375 783.281 504.375 788.594 478.75C793.906 452.5 796.719 425.625 796.719 398.438C796.719 371.25 793.906 344.375 788.594 318.125ZM398.281 58.125C484.531 58.125 562.969 90.3125 622.969 143.125C622.031 144.375 573.906 218.125 445.156 266.25C387.031 159.375 322.969 74.375 317.656 67.5C343.594 61.5625 370.469 58.125 398.281 58.125ZM316.094 68.125C316.406 67.8125 316.094 67.8125 316.094 68.125ZM252.969 90.625C257.656 96.5625 320.469 182.187 379.531 286.875C216.094 330 74.2187 328.438 65.4687 328.125C87.0312 222.812 157.969 135.313 252.969 90.625ZM144.844 625.625C90.7813 565.625 57.6562 485.938 57.6562 398.438C57.6562 394.687 57.9688 391.25 57.9688 387.813C63.9062 387.813 232.031 391.875 407.344 339.375C417.031 358.438 426.406 378.125 435.156 397.188C430.781 398.438 426.094 399.687 421.719 401.25C237.969 460.625 144.844 625.625 144.844 625.625ZM398.281 738.75C318.906 738.75 246.719 711.562 188.906 666.562C190.156 664.062 256.094 523.75 456.094 454.062C456.719 453.75 457.656 453.438 458.281 453.438C506.094 577.813 525.781 681.875 530.781 711.875C490.156 729.062 445.156 738.75 398.281 738.75ZM588.281 680.625C584.844 660 566.719 560.312 522.031 437.5C632.031 420 727.344 450 734.219 452.5C719.219 547.187 664.531 629.062 588.281 680.625ZM501.406 383.75C498.906 377.812 496.406 372.188 493.906 366.25C486.719 349.375 479.219 333.125 471.094 316.875C605.469 262.187 660.156 183.125 660.781 182.187C708.281 240.312 737.344 314.375 738.281 395C733.594 394.062 618.281 369.062 501.406 383.75Z" fill="#898989"/>
</svg>
