<svg xmlns="http://www.w3.org/2000/svg" xmlns:xlink="http://www.w3.org/1999/xlink" viewBox="0 0 18 18" overflow="visible"><path d="M 1 0 L 17 0 C 17.552 0 18 0.448 18 1 L 18 17 C 18 17.552 17.552 18 17 18 L 1 18 C 0.448 18 0 17.552 0 17 L 0 1 C 0 0.448 0.448 0 1 0 Z M 2 2 L 2 16 L 16 16 L 16 2 Z M 4.5 6 C 3.672 6 3 5.328 3 4.5 C 3 3.672 3.672 3 4.5 3 C 5.328 3 6 3.672 6 4.5 C 6 5.328 5.328 6 4.5 6 Z M 3.5 7 L 5.5 7 L 5.5 14.5 L 3.5 14.5 Z M 9 7.43 C 9.584 6.865 10.266 6.5 11 6.5 C 13.071 6.5 14.5 8.179 14.5 10.25 L 14.5 14.5 L 12.5 14.5 L 12.5 10.25 C 12.5 9.284 11.716 8.5 10.75 8.5 C 9.784 8.5 9 9.284 9 10.25 L 9 14.5 L 7 14.5 L 7 7 L 9 7 Z" fill="rgb(137, 137, 137)"></path></svg>